<svg xmlns="http://www.w3.org/2000/svg" viewBox="0 0 483.777 425.077">
  <defs>
    <style>
      .cls-1 {
        fill: #94bfbe;
        opacity: 0.2;
      }
    </style>
  </defs>
  <title>Asset 1</title>
  <g id="Layer_2" data-name="Layer 2">
    <g id="Layer_1-2" data-name="Layer 1">
      <path class="cls-1" d="M357.126,35.376c-37.552-52.243-179-40.024-191.134-5.86-5.326,15.087,18.136,24.563,11.933,42.392-7.281,20.947-42.879,17.207-104.432,59.974C63.043,139.176-.669,183.376.005,242.788c.607,55.422,50.228,109.66,104.029,120.2,55.081,10.785,76.521-31.3,132.411-21.134,69.51,12.718,77.735,83.227,119.805,83.227,81.51.062,166.324-266.2,108.478-300.8-22.856-13.653-59.262,14.089-84.814-5.86C355.238,99.214,378.363,64.864,357.126,35.376Z"/>
    </g>
  </g>
</svg>
